<svg width="72" height="72" viewBox="0 0 72 72" fill="none" xmlns="http://www.w3.org/2000/svg">
<g clip-path="url(#clip0_927_4099)">
<g clip-path="url(#clip1_927_4099)">
<path d="M13.4979 11.5372C20.4279 8.22974 30.1591 14.001 37.4941 9.63599C44.8404 5.27099 49.3741 -2.72776 61.2991 0.939739C72.3241 4.33724 75.2941 20.2785 67.9929 32.091C63.2454 39.7747 63.8866 42.171 63.5716 53.6685C63.2454 65.1547 48.9241 79.7122 36.4029 67.1685C25.3554 56.0985 23.7691 61.8585 13.8354 61.2847C3.90161 60.711 -6.27964 48.606 4.84661 31.3935C9.88661 23.5972 5.39786 15.396 13.5091 11.526L13.4979 11.5372Z" fill="#ADD3FF"/>
<path fill-rule="evenodd" clip-rule="evenodd" d="M44.73 35.6738C44.37 35.3138 43.8188 35.2463 43.3913 35.5163L40.9725 36.9899C40.6687 36.8437 40.3538 36.7199 40.0388 36.6074L39.3638 33.829C39.24 33.334 38.8013 32.9966 38.3063 32.9966H34.0763C33.57 32.9966 33.1313 33.3453 33.0188 33.829L32.3438 36.6074C32.0288 36.7199 31.725 36.8549 31.41 36.9899L28.9913 35.5163C28.5638 35.2576 28.0013 35.3251 27.6525 35.6738L24.6488 38.6772C24.2888 39.0372 24.2213 39.5884 24.4913 40.0158L25.965 42.4343C25.8188 42.738 25.695 43.053 25.5825 43.368L22.8038 44.0429C22.3088 44.1666 21.9713 44.6053 21.9713 45.1003V49.3298C21.9713 49.836 22.32 50.2747 22.8038 50.3872L25.5825 51.0622C25.695 51.3771 25.83 51.6808 25.965 51.9958L24.4913 54.4143C24.2325 54.8418 24.3 55.4042 24.6488 55.7529L27.6525 58.7563C28.0125 59.1163 28.5638 59.1838 28.9913 58.9138L31.41 57.4402C31.7138 57.5865 32.0288 57.7102 32.3438 57.8227L33.0188 60.6011C33.1425 61.0961 33.5813 61.4336 34.0763 61.4336H38.3063C38.8125 61.4336 39.2513 61.0848 39.3638 60.6011L40.0388 57.8227C40.3538 57.7102 40.6575 57.5752 40.9725 57.4402L43.3913 58.9138C43.8188 59.1725 44.3813 59.1051 44.73 58.7563L47.7338 55.7529C48.0938 55.3929 48.1613 54.8418 47.8913 54.4143L46.4175 51.9958C46.5637 51.6921 46.6875 51.3771 46.8 51.0622L49.5788 50.3872C50.0738 50.2635 50.4113 49.8248 50.4113 49.3298V45.1003C50.4113 44.5941 50.0625 44.1554 49.5788 44.0429L46.8 43.368C46.6875 43.053 46.5525 42.7493 46.4175 42.4343L47.8913 40.0158C48.15 39.5884 48.0825 39.0259 47.7338 38.6772L44.73 35.6738ZM39.5325 43.8629C37.6875 42.0181 34.6838 42.0181 32.8388 43.8629C30.9938 45.7077 30.9938 48.7112 32.8388 50.556C34.6838 52.4008 37.6875 52.4008 39.5325 50.556C41.3775 48.7112 41.3775 45.7077 39.5325 43.8629Z" fill="#D6EAFF" stroke="#001C3A" stroke-width="1.5" stroke-linecap="round" stroke-linejoin="round"/>
<path fill-rule="evenodd" clip-rule="evenodd" d="M17.5275 27.2373C18.18 18.0807 25.0988 10.9377 33.8738 10.9377C40.635 10.9377 45.7875 14.7736 48.78 20.9267C48.8925 21.1629 48.9713 21.2529 49.005 21.2866C49.0388 21.2979 49.2075 21.3541 49.6688 21.3541C53.8763 21.3541 57.3638 22.6365 59.8275 24.875C62.2913 27.1135 63.585 30.1957 63.585 33.4916C63.585 40.3196 58.1175 45.6515 51.2213 45.6515H19.4063C16.56 45.6515 14.0513 44.8754 12.2288 43.2893C10.3725 41.6695 9.41625 39.386 9.41625 36.81C9.41625 34.594 10.1363 32.5917 11.5313 30.9944C12.915 29.4195 14.85 28.3509 17.1113 27.7435H17.145C17.3138 27.6985 17.415 27.6647 17.4825 27.6422C17.505 27.5747 17.5163 27.451 17.5388 27.2485L17.5275 27.2373Z" fill="#EBF5FF" stroke="#001C3A" stroke-width="1.18" stroke-linecap="round" stroke-linejoin="round"/>
</g>
</g>
<defs>
<clipPath id="clip0_927_4099">
<rect width="72" height="72" fill="white"/>
</clipPath>
<clipPath id="clip1_927_4099">
<rect width="72" height="71.9923" fill="white" transform="translate(0 0.00390625)"/>
</clipPath>
</defs>
</svg>
