<svg width="72" height="72" viewBox="0 0 72 72" fill="none" xmlns="http://www.w3.org/2000/svg">
<g clip-path="url(#clip0_3168_11869)">
<g clip-path="url(#clip1_3168_11869)">
<path d="M63.63 60.896C67.0613 53.8985 63.8663 45.8997 67.275 37.2597C70.155 29.9472 74.2838 22.8147 70.47 10.7885C66.9375 -0.337761 50.4 -3.33026 38.1375 4.03849C30.1613 8.83099 28.0125 15.1647 15.6938 15.0072C3.43125 14.8497 -6.0525 25.5597 4.66875 35.4597C13.14 43.2785 9 47.711 9.59625 57.7347C10.2038 67.7585 20.4075 77.996 38.8575 67.7585C47.7675 62.8197 59.6138 69.086 63.6188 60.9072L63.63 60.896Z" fill="#ADD3FF"/>
<path d="M18.6975 61.3125H11.8125V5.0625H54.5625V11.9025" fill="#D6EAFF"/>
<path d="M18.6975 61.3125H11.8125V5.0625H54.5625V11.9025" stroke="#001C3A" stroke-width="1.5" stroke-linecap="round" stroke-linejoin="round"/>
<path d="M60.1875 10.6875H17.4375V66.9375H60.1875V10.6875Z" fill="#EBF5FF" stroke="#001C3A" stroke-width="1.5" stroke-linecap="round" stroke-linejoin="round"/>
<path d="M40.9163 22.2861H27.3488" stroke="#001C3A" stroke-width="1.5" stroke-linecap="round" stroke-linejoin="round"/>
<path d="M40.9163 31.3086H27.3713" stroke="#001C3A" stroke-width="1.5" stroke-linecap="round" stroke-linejoin="round"/>
<path d="M40.9163 40.3311H25.8525" stroke="#001C3A" stroke-width="1.5" stroke-linecap="round" stroke-linejoin="round"/>
<path d="M51.4575 17.7637H45.4388V23.7824H51.4575V17.7637Z" fill="#D6EAFF" stroke="#001C3A" stroke-width="1.5" stroke-linecap="round" stroke-linejoin="round"/>
<path d="M51.4575 35.8311H45.4388V41.8498H51.4575V35.8311Z" fill="#D6EAFF" stroke="#001C3A" stroke-width="1.5" stroke-linecap="round" stroke-linejoin="round"/>
<path d="M40.9163 49.3538H25.8525" stroke="#001C3A" stroke-width="1.5" stroke-linecap="round" stroke-linejoin="round"/>
<path d="M51.4575 44.8311H45.4388V50.8498H51.4575V44.8311Z" fill="#D6EAFF" stroke="#001C3A" stroke-width="1.5" stroke-linecap="round" stroke-linejoin="round"/>
<path d="M40.9163 58.3538H25.8525" stroke="#001C3A" stroke-width="1.5" stroke-linecap="round" stroke-linejoin="round"/>
<path d="M51.4575 53.8311H45.4388V59.8498H51.4575V53.8311Z" fill="#D6EAFF" stroke="#001C3A" stroke-width="1.5" stroke-linecap="round" stroke-linejoin="round"/>
<path d="M46.17 29.3624L48.1162 31.3199L50.7262 28.0574" stroke="#001C3A" stroke-width="1.5" stroke-linecap="round" stroke-linejoin="round"/>
</g>
</g>
<defs>
<clipPath id="clip0_3168_11869">
<rect width="72" height="72" fill="white"/>
</clipPath>
<clipPath id="clip1_3168_11869">
<rect width="72" height="72" fill="white"/>
</clipPath>
</defs>
</svg>
