<svg width="72" height="72" viewBox="0 0 72 72" fill="none" xmlns="http://www.w3.org/2000/svg">
<g clip-path="url(#clip0_875_7012)">
<path d="M5.0625 11.8125H60.1875V45.5625C60.1875 46.8 59.175 47.8125 57.9375 47.8125H7.3125C6.075 47.8125 5.0625 46.8 5.0625 45.5625V11.8125Z" fill="#D6EAFF" stroke="#003A80" stroke-width="1.5" stroke-linecap="round" stroke-linejoin="round"/>
<path d="M7.3125 6.1875H57.9375C59.175 6.1875 60.1875 7.2 60.1875 8.4375V11.8125H5.0625V8.4375C5.0625 7.2 6.075 6.1875 7.3125 6.1875Z" fill="#003A80" stroke="#003A80" stroke-width="1.5" stroke-linecap="round" stroke-linejoin="round"/>
<path d="M11.8125 29.8125H66.9375V63.5625C66.9375 64.8 65.925 65.8125 64.6875 65.8125H14.0625C12.825 65.8125 11.8125 64.8 11.8125 63.5625V29.8125Z" fill="#ADD3FF" stroke="#003A80" stroke-width="1.5" stroke-linecap="round" stroke-linejoin="round"/>
<path d="M14.0625 24.1875H64.6875C65.925 24.1875 66.9375 25.2 66.9375 26.4375V29.8125H11.8125V26.4375C11.8125 25.2 12.825 24.1875 14.0625 24.1875Z" fill="#003A80" stroke="#003A80" stroke-width="1.5" stroke-linecap="round" stroke-linejoin="round"/>
<path d="M60.1875 39.9375H18.5625V45.5625H60.1875V39.9375Z" fill="#D6EAFF" stroke="#003A80" stroke-width="1.5" stroke-linecap="round" stroke-linejoin="round"/>
<path d="M60.1875 53.4375H18.5625V59.0625H60.1875V53.4375Z" fill="#D6EAFF" stroke="#003A80" stroke-width="1.5" stroke-linecap="round" stroke-linejoin="round"/>
<path d="M18.5625 36.5625H33.1875" stroke="#003A80" stroke-width="1.5" stroke-linecap="round" stroke-linejoin="round"/>
<path d="M18.5625 50.0625H37.6875" stroke="#003A80" stroke-width="1.5" stroke-linecap="round" stroke-linejoin="round"/>
<path d="M51.1875 57.915L54.5625 68.0625L56.8125 65.8125L60.1875 69.1875L62.4263 66.8813L59.0625 63.5288L61.3125 61.3125L51.1875 57.915Z" fill="#EBF5FF" stroke="#003A80" stroke-width="1.5" stroke-linecap="round" stroke-linejoin="round"/>
</g>
<defs>
<clipPath id="clip0_875_7012">
<rect width="72" height="72" fill="white"/>
</clipPath>
</defs>
</svg>
