<svg width="72" height="72" viewBox="0 0 72 72" fill="none" xmlns="http://www.w3.org/2000/svg">
<g clip-path="url(#clip0_927_4111)">
<path fill-rule="evenodd" clip-rule="evenodd" d="M44.73 39.0488C44.37 38.6888 43.8188 38.6213 43.3913 38.8913L40.9725 40.3651C40.6687 40.2188 40.3538 40.0951 40.0388 39.9826L39.3638 37.2038C39.24 36.7088 38.8013 36.3713 38.3063 36.3713H34.0763C33.57 36.3713 33.1313 36.7201 33.0188 37.2038L32.3438 39.9826C32.0288 40.0951 31.725 40.2301 31.41 40.3651L28.9913 38.8913C28.5638 38.6326 28.0013 38.7001 27.6525 39.0488L24.6488 42.0526C24.2888 42.4126 24.2213 42.9638 24.4913 43.3913L25.965 45.8101C25.8188 46.1138 25.695 46.4288 25.5825 46.7438L22.8038 47.4188C22.3088 47.5426 21.9713 47.9813 21.9713 48.4763V52.7063C21.9713 53.2126 22.32 53.6513 22.8038 53.7638L25.5825 54.4388C25.695 54.7538 25.83 55.0576 25.965 55.3726L24.4913 57.7913C24.2325 58.2188 24.3 58.7813 24.6488 59.1301L27.6525 62.1338C28.0125 62.4938 28.5638 62.5613 28.9913 62.2913L31.41 60.8176C31.7138 60.9638 32.0288 61.0876 32.3438 61.2001L33.0188 63.9788C33.1425 64.4738 33.5813 64.8113 34.0763 64.8113H38.3063C38.8125 64.8113 39.2513 64.4626 39.3638 63.9788L40.0388 61.2001C40.3538 61.0876 40.6575 60.9526 40.9725 60.8176L43.3913 62.2913C43.8188 62.5501 44.3813 62.4826 44.73 62.1338L47.7338 59.1301C48.0938 58.7701 48.1613 58.2188 47.8913 57.7913L46.4175 55.3726C46.5637 55.0688 46.6875 54.7538 46.8 54.4388L49.5788 53.7638C50.0738 53.6401 50.4113 53.2013 50.4113 52.7063V48.4763C50.4113 47.9701 50.0625 47.5313 49.5788 47.4188L46.8 46.7438C46.6875 46.4288 46.5525 46.1251 46.4175 45.8101L47.8913 43.3913C48.15 42.9638 48.0825 42.4013 47.7338 42.0526L44.73 39.0488ZM39.5325 47.2388C37.6875 45.3938 34.6838 45.3938 32.8388 47.2388C30.9938 49.0838 30.9938 52.0876 32.8388 53.9326C34.6838 55.7776 37.6875 55.7776 39.5325 53.9326C41.3775 52.0876 41.3775 49.0838 39.5325 47.2388Z" fill="#D6EAFF" stroke="#003A80" stroke-width="1.5" stroke-linecap="round" stroke-linejoin="round"/>
<path fill-rule="evenodd" clip-rule="evenodd" d="M17.5275 23.8613C18.18 14.7038 25.0988 7.56006 33.8738 7.56006C40.635 7.56006 45.7875 11.3963 48.78 17.5501C48.8925 17.7863 48.9713 17.8763 49.005 17.9101C49.0388 17.9213 49.2075 17.9776 49.6688 17.9776C53.8763 17.9776 57.3638 19.2601 59.8275 21.4988C62.2913 23.7376 63.585 26.8201 63.585 30.1163C63.585 36.9451 58.1175 42.2776 51.2213 42.2776H19.4063C16.56 42.2776 14.0513 41.5013 12.2288 39.9151C10.3725 38.2951 9.41626 36.0113 9.41626 33.4351C9.41626 31.2188 10.1363 29.2163 11.5313 27.6188C12.915 26.0438 14.85 24.9751 17.1113 24.3676H17.145C17.3138 24.3226 17.415 24.2888 17.4825 24.2663C17.505 24.1988 17.5163 24.0751 17.5388 23.8726L17.5275 23.8613Z" fill="#ADD3FF" stroke="#003A80" stroke-width="1.5" stroke-linecap="round" stroke-linejoin="round"/>
</g>
<defs>
<clipPath id="clip0_927_4111">
<rect width="72" height="72" fill="white"/>
</clipPath>
</defs>
</svg>
