<svg width="72" height="72" viewBox="0 0 72 72" fill="none" xmlns="http://www.w3.org/2000/svg">
<g clip-path="url(#clip0_3168_11994)">
<g clip-path="url(#clip1_3168_11994)">
<path d="M60.896 63.6301C53.8985 67.0614 45.8998 63.8664 37.2598 67.2751C29.9473 70.1551 22.8148 74.2839 10.7885 70.4701C-0.337715 66.9376 -3.33022 50.4001 4.03853 38.1376C8.83103 30.1614 15.1648 28.0126 15.0073 15.6938C14.8498 3.43135 25.5598 -6.0524 35.4598 4.66885C43.2785 13.1401 47.711 9.0001 57.7348 9.59635C67.7585 10.2038 77.996 20.4076 67.7585 38.8576C62.8198 47.7676 69.086 59.6138 60.9073 63.6189L60.896 63.6301Z" fill="#ADD3FF"/>
<path d="M60.0863 17.6514H11.9137V50.8501H60.0863V17.6514Z" fill="#001C3A" stroke="#001C3A" stroke-width="1.5" stroke-linecap="round" stroke-linejoin="round"/>
<path d="M66.9375 59.6587H5.0625V65.6774H66.9375V59.6587Z" fill="#EBF5FF" stroke="#001C3A" stroke-width="1.5" stroke-linecap="round" stroke-linejoin="round"/>
<path d="M60.0863 50.7712L66.9375 59.6587H5.0625L11.9138 50.7712H60.0863Z" fill="#D6EAFF" stroke="#001C3A" stroke-width="1.5" stroke-linecap="round" stroke-linejoin="round"/>
<path d="M16.0312 50.1975V6.32251H55.9688V50.1975" fill="#EBF5FF"/>
<path d="M16.0312 50.1975V6.32251H55.9688V50.1975" stroke="#001C3A" stroke-width="1.5" stroke-linecap="round" stroke-linejoin="round"/>
<path d="M37.9688 17.1562H25.29" stroke="#001C3A" stroke-width="1.5" stroke-linecap="round" stroke-linejoin="round"/>
<path d="M37.9688 25.5825H25.3125" stroke="#001C3A" stroke-width="1.5" stroke-linecap="round" stroke-linejoin="round"/>
<path d="M37.9688 34.0088H23.8838" stroke="#001C3A" stroke-width="1.5" stroke-linecap="round" stroke-linejoin="round"/>
<path d="M37.9688 42.4463H23.8838" stroke="#001C3A" stroke-width="1.5" stroke-linecap="round" stroke-linejoin="round"/>
<path d="M47.8125 38.2161H42.1875V43.8411H47.8125V38.2161Z" fill="#D6EAFF" stroke="#001C3A" stroke-width="1.5" stroke-linecap="round" stroke-linejoin="round"/>
<path d="M42.1875 50.1974V46.6311H47.8125V50.1974" fill="#D6EAFF"/>
<path d="M42.1875 50.1974V46.6311H47.8125V50.1974" stroke="#001C3A" stroke-width="1.5" stroke-linecap="round" stroke-linejoin="round"/>
<path d="M42.8737 23.7599L44.6962 25.5937L47.1375 22.5449" stroke="#001C3A" stroke-width="1.5" stroke-linecap="round" stroke-linejoin="round"/>
<path d="M42.8737 15.8849L44.6962 17.7187L47.1375 14.6699" stroke="#001C3A" stroke-width="1.5" stroke-linecap="round" stroke-linejoin="round"/>
<path d="M42.8737 32.7599L44.6962 34.5937L47.1375 31.5449" stroke="#001C3A" stroke-width="1.5" stroke-linecap="round" stroke-linejoin="round"/>
<path d="M14.0625 53.865H56.8125" stroke="#001C3A" stroke-width="1.5" stroke-linecap="round" stroke-linejoin="round"/>
<path d="M12.9375 56.115H59.0625" stroke="#001C3A" stroke-width="1.5" stroke-linecap="round" stroke-linejoin="round"/>
</g>
</g>
<defs>
<clipPath id="clip0_3168_11994">
<rect width="72" height="72" fill="white"/>
</clipPath>
<clipPath id="clip1_3168_11994">
<rect width="72" height="72" fill="white"/>
</clipPath>
</defs>
</svg>
