<svg width="72" height="72" viewBox="0 0 72 72" fill="none" xmlns="http://www.w3.org/2000/svg">
<g clip-path="url(#clip0_639_2056)">
<path d="M5.0625 14.0625H60.1875V47.8125C60.1875 49.05 59.175 50.0625 57.9375 50.0625H7.3125C6.075 50.0625 5.0625 49.05 5.0625 47.8125V14.0625Z" fill="#D6EAFF" stroke="#003A80" stroke-width="1.5" stroke-linecap="round" stroke-linejoin="round"/>
<path d="M7.3125 8.4375H57.9375C59.175 8.4375 60.1875 9.45 60.1875 10.6875V14.0625H5.0625V10.6875C5.0625 9.45 6.075 8.4375 7.3125 8.4375Z" fill="#003A80" stroke="#003A80" stroke-width="1.5" stroke-linecap="round" stroke-linejoin="round"/>
<path d="M11.8125 32.0625H66.9375V65.8125C66.9375 67.05 65.925 68.0625 64.6875 68.0625H14.0625C12.825 68.0625 11.8125 67.05 11.8125 65.8125V32.0625Z" fill="#ADD3FF" stroke="#003A80" stroke-width="1.5" stroke-linecap="round" stroke-linejoin="round"/>
<path d="M14.0625 26.4375H64.6875C65.925 26.4375 66.9375 27.45 66.9375 28.6875V32.0625H11.8125V28.6875C11.8125 27.45 12.825 26.4375 14.0625 26.4375Z" fill="#003A80" stroke="#003A80" stroke-width="1.5" stroke-linecap="round" stroke-linejoin="round"/>
<path d="M18.5625 38.8125H24.1875" stroke="#003A80" stroke-width="1.5" stroke-linecap="round" stroke-linejoin="round"/>
<path d="M29.8125 38.8125H35.4375" stroke="#003A80" stroke-width="1.5" stroke-linecap="round" stroke-linejoin="round"/>
<path d="M41.0625 38.8125H60.1875" stroke="#003A80" stroke-width="1.5" stroke-linecap="round" stroke-linejoin="round"/>
<path d="M18.5625 44.4375H24.1875" stroke="#003A80" stroke-width="1.5" stroke-linecap="round" stroke-linejoin="round"/>
<path d="M29.8125 44.4375H35.4375" stroke="#003A80" stroke-width="1.5" stroke-linecap="round" stroke-linejoin="round"/>
<path d="M41.0625 44.4375H60.1875" stroke="#003A80" stroke-width="1.5" stroke-linecap="round" stroke-linejoin="round"/>
<path d="M18.5625 50.0625H24.1875" stroke="#003A80" stroke-width="1.5" stroke-linecap="round" stroke-linejoin="round"/>
<path d="M29.8125 50.0625H35.4375" stroke="#003A80" stroke-width="1.5" stroke-linecap="round" stroke-linejoin="round"/>
<path d="M41.0625 50.0625H60.1875" stroke="#003A80" stroke-width="1.5" stroke-linecap="round" stroke-linejoin="round"/>
<path d="M18.5625 55.6875H24.1875" stroke="#003A80" stroke-width="1.5" stroke-linecap="round" stroke-linejoin="round"/>
<path d="M29.8125 55.6875H35.4375" stroke="#003A80" stroke-width="1.5" stroke-linecap="round" stroke-linejoin="round"/>
<path d="M41.0625 55.6875H60.1875" stroke="#003A80" stroke-width="1.5" stroke-linecap="round" stroke-linejoin="round"/>
<path d="M18.5625 61.3125H24.1875" stroke="#003A80" stroke-width="1.5" stroke-linecap="round" stroke-linejoin="round"/>
<path d="M29.8125 61.3125H35.4375" stroke="#003A80" stroke-width="1.5" stroke-linecap="round" stroke-linejoin="round"/>
<path d="M41.0625 61.3125H60.1875" stroke="#003A80" stroke-width="1.5" stroke-linecap="round" stroke-linejoin="round"/>
</g>
<defs>
<clipPath id="clip0_639_2056">
<rect width="72" height="72" fill="white"/>
</clipPath>
</defs>
</svg>
