<svg width="72" height="72" viewBox="0 0 72 72" fill="none" xmlns="http://www.w3.org/2000/svg">
<g clip-path="url(#clip0_3168_12013)">
<path d="M60.0863 17.6514H11.9138V50.8501H60.0863V17.6514Z" fill="#ADD3FF" stroke="#003A80" stroke-width="1.5" stroke-linecap="round" stroke-linejoin="round"/>
<path d="M68.0625 59.6587H3.9375V65.6774H68.0625V59.6587Z" fill="#EBF5FF" stroke="#003A80" stroke-width="1.5" stroke-linecap="round" stroke-linejoin="round"/>
<path d="M60.0863 50.7712L68.0625 59.6587H3.9375L11.9138 50.7712H60.0863Z" fill="#ADD3FF" stroke="#003A80" stroke-width="1.5" stroke-linecap="round" stroke-linejoin="round"/>
<path d="M16.0312 50.1975V6.32251H55.9688V50.1975" fill="#EBF5FF"/>
<path d="M16.0312 50.1975V6.32251H55.9688V50.1975" stroke="#003A80" stroke-width="1.5" stroke-linecap="round" stroke-linejoin="round"/>
<path d="M37.9688 17.1562H25.29" stroke="#003A80" stroke-width="1.5" stroke-linecap="round" stroke-linejoin="round"/>
<path d="M37.9688 25.5825H25.3125" stroke="#003A80" stroke-width="1.5" stroke-linecap="round" stroke-linejoin="round"/>
<path d="M37.9688 34.0088H23.8838" stroke="#003A80" stroke-width="1.5" stroke-linecap="round" stroke-linejoin="round"/>
<path d="M47.8125 12.9375H42.1875V18.5625H47.8125V12.9375Z" fill="#ADD3FF" stroke="#003A80" stroke-width="1.5" stroke-linecap="round" stroke-linejoin="round"/>
<path d="M47.8125 29.8125H42.1875V35.4375H47.8125V29.8125Z" fill="#ADD3FF" stroke="#003A80" stroke-width="1.5" stroke-linecap="round" stroke-linejoin="round"/>
<path d="M37.9688 42.4463H23.8838" stroke="#003A80" stroke-width="1.5" stroke-linecap="round" stroke-linejoin="round"/>
<path d="M47.8125 38.2163H42.1875V43.8413H47.8125V38.2163Z" fill="#ADD3FF" stroke="#003A80" stroke-width="1.5" stroke-linecap="round" stroke-linejoin="round"/>
<path d="M42.1875 50.1976V46.6313H47.8125V50.1976" fill="#ADD3FF"/>
<path d="M42.1875 50.1976V46.6313H47.8125V50.1976" stroke="#003A80" stroke-width="1.5" stroke-linecap="round" stroke-linejoin="round"/>
<path d="M42.8737 23.7599L44.6962 25.5937L47.1375 22.5449" stroke="#003A80" stroke-width="1.5" stroke-linecap="round" stroke-linejoin="round"/>
<path d="M14.0625 53.865H56.8125" stroke="#003A80" stroke-width="1.5" stroke-linecap="round" stroke-linejoin="round"/>
<path d="M12.9375 56.115H59.0625" stroke="#003A80" stroke-width="1.5" stroke-linecap="round" stroke-linejoin="round"/>
</g>
<defs>
<clipPath id="clip0_3168_12013">
<rect width="72" height="72" fill="white"/>
</clipPath>
</defs>
</svg>
