<svg width="72" height="72" viewBox="0 0 72 72" fill="none" xmlns="http://www.w3.org/2000/svg">
<g clip-path="url(#clip0_639_2040)">
<g clip-path="url(#clip1_639_2040)">
<path d="M60.896 8.36995C53.8985 4.9387 45.8998 8.1337 37.2598 4.72495C29.9473 1.84495 22.8148 -2.27255 10.7885 1.52995C-0.337715 5.06245 -3.33022 21.5999 4.03853 33.8624C8.83103 41.8387 15.1648 43.9874 15.0073 56.3062C14.8498 68.5687 25.5598 78.0524 35.4598 67.3312C43.2785 58.8599 47.711 62.9999 57.7348 62.4037C67.7585 61.7962 77.996 51.5924 67.7585 33.1424C62.8198 24.2324 69.086 12.3862 60.9073 8.3812L60.896 8.36995Z" fill="#ADD3FF"/>
<path d="M6.1875 15.1875H61.3125V48.9375C61.3125 50.175 60.3 51.1875 59.0625 51.1875H8.4375C7.2 51.1875 6.1875 50.175 6.1875 48.9375V15.1875Z" fill="#D6EAFF" stroke="#001C3A" stroke-width="1.5" stroke-linecap="round" stroke-linejoin="round"/>
<path d="M8.4375 9.5625H59.0625C60.3 9.5625 61.3125 10.575 61.3125 11.8125V15.1875H6.1875V11.8125C6.1875 10.575 7.2 9.5625 8.4375 9.5625Z" fill="#001C3A" stroke="#001C3A" stroke-width="1.5" stroke-linecap="round" stroke-linejoin="round"/>
<path d="M10.6875 26.4375H65.8125V60.1875C65.8125 61.425 64.8 62.4375 63.5625 62.4375H12.9375C11.7 62.4375 10.6875 61.425 10.6875 60.1875V26.4375Z" fill="#EBF5FF" stroke="#001C3A" stroke-width="1.5" stroke-linecap="round" stroke-linejoin="round"/>
<path d="M12.9375 20.8125H63.5625C64.8 20.8125 65.8125 21.825 65.8125 23.0625V26.4375H10.6875V23.0625C10.6875 21.825 11.7 20.8125 12.9375 20.8125Z" fill="#001C3A" stroke="#001C3A" stroke-width="1.5" stroke-linecap="round" stroke-linejoin="round"/>
<path d="M17.4375 33.1875H23.0625" stroke="#001C3A" stroke-width="1.5" stroke-linecap="round" stroke-linejoin="round"/>
<path d="M28.6875 33.1875H34.3125" stroke="#001C3A" stroke-width="1.5" stroke-linecap="round" stroke-linejoin="round"/>
<path d="M39.9375 33.1875H59.0625" stroke="#001C3A" stroke-width="1.5" stroke-linecap="round" stroke-linejoin="round"/>
<path d="M17.4375 38.8125H23.0625" stroke="#001C3A" stroke-width="1.5" stroke-linecap="round" stroke-linejoin="round"/>
<path d="M28.6875 38.8125H34.3125" stroke="#001C3A" stroke-width="1.5" stroke-linecap="round" stroke-linejoin="round"/>
<path d="M39.9375 38.8125H59.0625" stroke="#001C3A" stroke-width="1.5" stroke-linecap="round" stroke-linejoin="round"/>
<path d="M17.4375 44.4375H23.0625" stroke="#001C3A" stroke-width="1.5" stroke-linecap="round" stroke-linejoin="round"/>
<path d="M28.6875 44.4375H34.3125" stroke="#001C3A" stroke-width="1.5" stroke-linecap="round" stroke-linejoin="round"/>
<path d="M39.9375 44.4375H59.0625" stroke="#001C3A" stroke-width="1.5" stroke-linecap="round" stroke-linejoin="round"/>
<path d="M17.4375 50.0625H23.0625" stroke="#001C3A" stroke-width="1.5" stroke-linecap="round" stroke-linejoin="round"/>
<path d="M28.6875 50.0625H34.3125" stroke="#001C3A" stroke-width="1.5" stroke-linecap="round" stroke-linejoin="round"/>
<path d="M39.9375 50.0625H59.0625" stroke="#001C3A" stroke-width="1.5" stroke-linecap="round" stroke-linejoin="round"/>
<path d="M17.4375 55.6875H23.0625" stroke="#001C3A" stroke-width="1.5" stroke-linecap="round" stroke-linejoin="round"/>
<path d="M28.6875 55.6875H34.3125" stroke="#001C3A" stroke-width="1.5" stroke-linecap="round" stroke-linejoin="round"/>
<path d="M39.9375 55.6875H59.0625" stroke="#001C3A" stroke-width="1.5" stroke-linecap="round" stroke-linejoin="round"/>
</g>
</g>
<defs>
<clipPath id="clip0_639_2040">
<rect width="72" height="72" fill="white"/>
</clipPath>
<clipPath id="clip1_639_2040">
<rect width="72" height="72" fill="white"/>
</clipPath>
</defs>
</svg>
