<svg width="72" height="72" viewBox="0 0 72 72" fill="none" xmlns="http://www.w3.org/2000/svg">
<g clip-path="url(#clip0_3168_11881)">
<path d="M17.5725 60.1875H10.6875V3.9375H53.4375V10.7775" fill="#D6EAFF"/>
<path d="M17.5725 60.1875H10.6875V3.9375H53.4375V10.7775" stroke="#003A80" stroke-width="1.5" stroke-linecap="round" stroke-linejoin="round"/>
<path d="M61.3125 11.8125H18.5625V68.0625H61.3125V11.8125Z" fill="#EBF5FF" stroke="#003A80" stroke-width="1.5" stroke-linecap="round" stroke-linejoin="round"/>
<path d="M42.0413 23.4111H28.4738" stroke="#001C3A" stroke-width="1.5" stroke-linecap="round" stroke-linejoin="round"/>
<path d="M42.0412 32.4336H28.4962" stroke="#001C3A" stroke-width="1.5" stroke-linecap="round" stroke-linejoin="round"/>
<path d="M42.0413 41.4561H26.9775" stroke="#001C3A" stroke-width="1.5" stroke-linecap="round" stroke-linejoin="round"/>
<path d="M52.5825 18.8887H46.5638V24.9074H52.5825V18.8887Z" fill="#ADD3FF" stroke="#003A80" stroke-width="1.5" stroke-linecap="round" stroke-linejoin="round"/>
<path d="M52.5825 36.9561H46.5638V42.9748H52.5825V36.9561Z" fill="#ADD3FF" stroke="#003A80" stroke-width="1.5" stroke-linecap="round" stroke-linejoin="round"/>
<path d="M42.0413 50.4788H26.9775" stroke="#001C3A" stroke-width="1.5" stroke-linecap="round" stroke-linejoin="round"/>
<path d="M52.5825 45.9561H46.5638V51.9748H52.5825V45.9561Z" fill="#ADD3FF" stroke="#003A80" stroke-width="1.5" stroke-linecap="round" stroke-linejoin="round"/>
<path d="M42.0413 59.4788H26.9775" stroke="#001C3A" stroke-width="1.5" stroke-linecap="round" stroke-linejoin="round"/>
<path d="M52.5825 54.9561H46.5638V60.9748H52.5825V54.9561Z" fill="#ADD3FF" stroke="#003A80" stroke-width="1.5" stroke-linecap="round" stroke-linejoin="round"/>
<path d="M47.295 30.4874L49.2413 32.4449L51.8513 29.1824" stroke="#003A80" stroke-width="1.5" stroke-linecap="round" stroke-linejoin="round"/>
</g>
<defs>
<clipPath id="clip0_3168_11881">
<rect width="72" height="72" fill="white"/>
</clipPath>
</defs>
</svg>
